<svg xmlns="http://www.w3.org/2000/svg" width="40" height="40" viewBox="0 0 24 24" style="enable-background:new 0 0 512 512"><g><g data-name="Layer 2"><path fill="#37d0ee" d="M12 2C8.28 2 5.21 3 3.78 4.63c-2.38 2.76-2.38 12 0 14.74C5.21 21 8.28 22 12 22s6.79-1 8.22-2.63c2.38-2.76 2.38-12 0-14.74C18.79 3 15.72 2 12 2z" opacity="1" data-original="#37d0ee" ></path><g fill="#fff"><circle cx="12" cy="8" r="1.25" fill="#ffffff" opacity="1" data-original="#ffffff" ></circle><path d="M12 17.5a1 1 0 0 1-1-1v-4a1 1 0 0 1 0-2h1a1 1 0 0 1 1 1v5a1 1 0 0 1-1 1z" fill="#ffffff" opacity="1" data-original="#ffffff" ></path><path d="M13 17.5h-2a1 1 0 0 1 0-2h2a1 1 0 0 1 0 2z" fill="#ffffff" opacity="1" data-original="#ffffff" ></path></g></g></g></svg>