
<svg xmlns="http://www.w3.org/2000/svg" version="1.1" xmlns:xlink="http://www.w3.org/1999/xlink" width="40" height="40" x="0" y="0" viewBox="0 0 64 64" style="enable-background:new 0 0 512 512" xml:space="preserve" class=""><g><path fill="#37c3f1" d="M56.9 31.8H30.2c-1.1 0-2-.9-2-2V11.9c0-1.1.9-2 2-2h26.7c1.1 0 2 .9 2 2v17.9c0 1.1-.9 2-2 2z" opacity="1" data-original="#37c3f1"></path><path fill="#f1f1ef" d="M43.6 22.2c-.7 0-1.3-.2-1.9-.6l-13-9c-.5-.3-.6-.9-.3-1.4s.9-.6 1.4-.3l13 9c.4.3 1 .3 1.5 0l13-9c.5-.3 1.1-.2 1.4.3s.2 1.1-.3 1.4l-13 9c-.5.4-1.2.6-1.8.6z" opacity="1" data-original="#f1f1ef"></path><path fill="#1a9ce2" d="m41.9 53.6 6.1-6.1c1-1 1-2.7 0-3.7l-5.6-5.6c-1-1-2.7-1-3.7 0l-1.5 1.5c-.7.7-1.7.9-2.6.5-2.5-1.1-6-3-9.3-6.3-3.4-3.4-5.4-6.9-6.5-9.5-.4-.9-.2-2 .5-2.7l1.5-1.5c1-1 1-2.7 0-3.7l-5.4-5.4c-1-1-2.7-1-3.7 0l-6.1 6.1c-.6.6-.7 1.5-.4 2.3 2.6 5.3 7.1 12.8 14.4 20.1S34.3 51.3 39.7 54c.7.3 1.7.2 2.2-.4z" opacity="1" data-original="#1a9ce2" class=""></path></g></svg>