
<svg xmlns="http://www.w3.org/2000/svg" width="40" height="40" viewBox="0 0 512 512" style="enable-background:new 0 0 512 512"><g><linearGradient id="a" x1="38.65" x2="473.35" y1="38.65" y2="473.35" gradientTransform="rotate(-90 256 256)" gradientUnits="userSpaceOnUse"><stop offset="0" stop-color="#549eff"></stop><stop offset="1" stop-color="#006db0"></stop></linearGradient><linearGradient id="b" x1="167.61" x2="455.55" y1="203.22" y2="491.15" gradientUnits="userSpaceOnUse"><stop offset="0" stop-opacity=".35"></stop><stop offset="1" stop-opacity="0"></stop></linearGradient><g data-name="Layer 2"><g data-name="01.Home"><rect width="512" height="512" fill="url(#a)" rx="131.96" transform="rotate(90 256 256)" opacity="1" data-original="url(#a)"></rect><path fill="url(#b)" d="M512 340.79V380a132 132 0 0 1-132 132H269.58L143.07 385.49l12.64-84.05-43.16-43.16 286-30.9z" opacity="1" data-original="url(#b)" ></path><path fill="#ffffff" d="M398.59 227.38 282.34 130a41 41 0 0 0-52.69 0l-116.24 97.38c-14.75 12.36-6 36.4 13.23 36.4h10.54v107.33a20.51 20.51 0 0 0 20.51 20.51h58.76V322.3A39.54 39.54 0 0 1 256 282.75a39.55 39.55 0 0 1 39.55 39.55v69.32h58.76a20.51 20.51 0 0 0 20.51-20.51V263.78h10.53c19.25 0 27.99-24.04 13.24-36.4z" data-name="01.Home" opacity="1" data-original="#ffffff"></path></g></g></g></svg>


