<svg xmlns="http://www.w3.org/2000/svg" version="1.1" xmlns:xlink="http://www.w3.org/1999/xlink" width="40" height="40" x="0" y="0" viewBox="0 0 512 512" style="enable-background:new 0 0 512 512" xml:space="preserve" class=""><g><path fill="#f1e8dc" d="M76.833 435.167H441.5a20 20 0 0 0 20-20v-368H146.833l-70 70z" opacity="1" data-original="#f1e8dc" class=""></path><circle cx="411.264" cy="74.168" r="7.5" fill="#9a99a1" opacity="1" data-original="#9a99a1" class=""></circle><circle cx="332.264" cy="74.168" r="7.5" fill="#9a99a1" opacity="1" data-original="#9a99a1" class=""></circle><circle cx="253.264" cy="74.168" r="7.5" fill="#9a99a1" opacity="1" data-original="#9a99a1" class=""></circle><circle cx="174.264" cy="74.168" r="7.5" fill="#9a99a1" opacity="1" data-original="#9a99a1" class=""></circle><path fill="#54c1ed" d="M301.91 207.88v52h-30a5 5 0 0 1-5-5v-42a5 5 0 0 1 5-5h30z" opacity="1" data-original="#54c1ed" class=""></path><path fill="#f4644d" d="M406.91 133.88v121a5 5 0 0 1-5 5h-30v-126a5 5 0 0 1 5-5h25a5 5 0 0 1 5 5z" opacity="1" data-original="#f4644d"></path><path fill="#8bc932" d="M336.91 181.88v78h-35v-73a5 5 0 0 1 5-5h30z" opacity="1" data-original="#8bc932"></path><path fill="#f9d36b" d="M371.91 154.88v105h-35v-100a5 5 0 0 1 5-5h30z" opacity="1" data-original="#f9d36b"></path><path fill="#efdbc6" d="M126.83 435.17h-50v-318l30-30v328a20.007 20.007 0 0 0 20 20z" opacity="1" data-original="#efdbc6" class=""></path><path fill="#e5cfbd" d="M76.833 117.168h50a20 20 0 0 0 20-20v-50z" opacity="1" data-original="#e5cfbd" class=""></path><g fill="#9a99a1"><path d="M233.034 195.168h-110a7.5 7.5 0 1 1 0-15h110a7.5 7.5 0 0 1 0 15zM202.889 229.169h-39.134a7.5 7.5 0 0 1 0-15h39.134a7.5 7.5 0 0 1 0 15zM140.535 229.169h-17.5a7.5 7.5 0 0 1 0-15h17.5a7.5 7.5 0 0 1 0 15zM233.034 161.164h-82a7.5 7.5 0 0 1 0-15h82a7.5 7.5 0 0 1 0 15z" fill="#9a99a1" opacity="1" data-original="#9a99a1" class=""></path><circle cx="130.534" cy="153.668" r="7.5" fill="#9a99a1" opacity="1" data-original="#9a99a1" class=""></circle><circle cx="225.534" cy="221.668" r="7.5" fill="#9a99a1" opacity="1" data-original="#9a99a1" class=""></circle><path d="M396.91 355h-110a7.5 7.5 0 0 1 0-15h110a7.5 7.5 0 1 1 0 15zM366.765 389h-39.133a7.5 7.5 0 0 1 0-15h39.133a7.5 7.5 0 0 1 0 15zM304.411 389h-17.5a7.5 7.5 0 0 1 0-15h17.5a7.5 7.5 0 0 1 0 15zM396.91 321h-82a7.5 7.5 0 0 1 0-15h82a7.5 7.5 0 0 1 0 15z" fill="#9a99a1" opacity="1" data-original="#9a99a1" class=""></path><circle cx="294.41" cy="313.498" r="7.5" fill="#9a99a1" opacity="1" data-original="#9a99a1" class=""></circle><circle cx="389.41" cy="381.502" r="7.5" fill="#9a99a1" opacity="1" data-original="#9a99a1" class=""></circle></g><path fill="#46bee8" d="M260.5 383.793v-29.586a10 10 0 0 0-9.094-9.959l-22.067-2.007a89.381 89.381 0 0 0-6.386-15.35l14.2-17.042a10 10 0 0 0-.611-13.473l-20.921-20.921a10 10 0 0 0-13.473-.611l-17.042 14.2a89.381 89.381 0 0 0-15.35-6.386l-2.007-22.067a10 10 0 0 0-9.959-9.094h-29.583a10 10 0 0 0-9.959 9.094l-2.007 22.067a89.381 89.381 0 0 0-15.35 6.386l-17.042-14.2a10 10 0 0 0-13.473.611l-20.921 20.921a10 10 0 0 0-.611 13.473l14.2 17.042a89.381 89.381 0 0 0-6.386 15.35l-22.067 2.007a10 10 0 0 0-9.094 9.959v29.586a10 10 0 0 0 9.094 9.959l22.067 2.007a89.381 89.381 0 0 0 6.386 15.35l-14.2 17.042a10 10 0 0 0 .611 13.473l20.921 20.921a10 10 0 0 0 13.473.611l17.042-14.2a89.381 89.381 0 0 0 15.35 6.386l2.007 22.067a10 10 0 0 0 9.959 9.094h29.586a10 10 0 0 0 9.959-9.094l2.007-22.067a89.381 89.381 0 0 0 15.35-6.386l17.042 14.2a10 10 0 0 0 13.473-.611l20.921-20.921a10 10 0 0 0 .611-13.473l-14.2-17.042a89.381 89.381 0 0 0 6.386-15.35l22.067-2.007a10 10 0 0 0 9.091-9.959zM143 411.534A42.534 42.534 0 1 1 185.534 369 42.584 42.584 0 0 1 143 411.534z" opacity="1" data-original="#46bee8" class=""></path><path fill="#17afde" d="m70.38 275.45-20.93 20.93a10 10 0 0 0-.61 13.47l14.2 17.03a90.715 90.715 0 0 1 37.84-37.84l-17.03-14.2a10 10 0 0 0-13.47.61zM63.04 411.12l-14.2 17.03a10 10 0 0 0 .61 13.47l20.93 20.92a9.995 9.995 0 0 0 13.47.62l17.03-14.2a90.715 90.715 0 0 1-37.84-37.84zM52.6 369a90.335 90.335 0 0 1 4.04-26.76l-22.05 2.01a9.993 9.993 0 0 0-9.09 9.96v29.58a9.993 9.993 0 0 0 9.09 9.96l22.05 2.01A90.335 90.335 0 0 1 52.6 369zM143 314a55 55 0 1 0 55 55 55.061 55.061 0 0 0-55-55zm0 80a25 25 0 1 1 25-25 25.03 25.03 0 0 1-25 25z" opacity="1" data-original="#17afde" class=""></path><path fill="#ffb155" d="M436.5 100.5v206.286l20.467 43.974a5 5 0 0 0 9.066 0l20.467-43.974V100.5z" opacity="1" data-original="#ffb155"></path><path fill="#f4644d" fill-rule="evenodd" d="M486.5 70.5h-50v-20a25 25 0 0 1 25-25 25 25 0 0 1 25 25z" opacity="1" data-original="#f4644d"></path><path fill="#e6f0f6" d="M436.5 70.5h50v30h-50z" opacity="1" data-original="#e6f0f6" class=""></path><path fill="#aacfe2" d="M436.5 70.5h20v30h-20z" opacity="1" data-original="#aacfe2"></path><path fill="#f19b40" d="m471.5 339.01-5.47 11.75a5 5 0 0 1-9.06 0l-20.47-43.97V100.5h20v206.29z" opacity="1" data-original="#f19b40"></path><path fill="#e8533a" fill-rule="evenodd" d="M456.5 26v44.5h-20v-20a25.009 25.009 0 0 1 20-24.5z" opacity="1" data-original="#e8533a" class=""></path></g></svg>