<svg xmlns="http://www.w3.org/2000/svg" width="40" height="40" x="0" y="0" viewBox="0 0 64 64" style="enable-background:new 0 0 512 512" ><g><path fill="#50b6cf" d="M56 28C56 12.66 42.715.423 27.023 2.166 14.979 3.503 5.337 13.27 4.133 25.329c-.66 6.618 1.166 12.79 4.654 17.7C12.292 47.961 14 53.948 14 60h25v-5h13V42h7z" opacity="1" data-original="#50b6cf"></path><path fill="#3cadc9" d="M7.432 15.105a25.617 25.617 0 0 0-3.298 10.224c-.66 6.618 1.165 12.79 4.653 17.7C12.292 47.96 14 53.948 14 59.998V62h25v-7h13v-3.76C31.085 46.537 14.338 32.823 7.432 15.104z" opacity="1" data-original="#3cadc9"></path><path fill="#e34e4b" d="M36.911 25.267c.053-.416.089-.837.089-1.267s-.036-.851-.089-1.267l-2.219-.91a7.94 7.94 0 0 0-.711-1.724l.923-2.209a10.04 10.04 0 0 0-1.794-1.794l-2.209.923a7.944 7.944 0 0 0-1.724-.711l-.91-2.219C27.851 14.036 27.43 14 27 14s-.851.036-1.267.089l-.91 2.219a7.943 7.943 0 0 0-1.724.711l-2.209-.923a10.043 10.043 0 0 0-1.794 1.794l.923 2.209a7.943 7.943 0 0 0-.711 1.724l-2.219.91C17.036 23.149 17 23.57 17 24s.036.851.089 1.267l2.219.91c.171.607.41 1.185.711 1.724l-.923 2.209c.52.672 1.122 1.274 1.794 1.794l2.209-.923c.539.302 1.117.54 1.724.711l.91 2.219c.416.053.837.089 1.267.089s.851-.036 1.267-.089l.91-2.219a7.94 7.94 0 0 0 1.724-.711l2.209.923a10.043 10.043 0 0 0 1.794-1.794l-.923-2.209c.302-.539.54-1.117.711-1.724zM27 28a4 4 0 1 1 0-8 4 4 0 0 1 0 8z" opacity="1" data-original="#e34e4b"></path><g fill="#223b5a"><path d="M35 55h4v2h-4zM11.575 28.266A16.024 16.024 0 0 1 11 24c0-8.822 7.178-16 16-16h10v2H27c-7.72 0-14 6.28-14 14 0 1.269.169 2.525.503 3.734z" fill="#223b5a" opacity="1" data-original="#223b5a"></path><path d="M27.014 40h-.015c-.88 0-1.766-.073-2.629-.216l.326-1.972c.76.126 1.54.157 2.317.188.467 0 .94-.024 1.404-.07l.201 1.99c-.532.053-1.071.08-1.604.08zm3.705-.435-.463-1.945a13.902 13.902 0 0 0 3.47-1.339l.963 1.753a15.89 15.89 0 0 1-3.97 1.53zm-8.427-.27a15.927 15.927 0 0 1-3.863-1.783l1.074-1.687a13.892 13.892 0 0 0 3.377 1.559zm14.194-2.408-1.187-1.61a14.104 14.104 0 0 0 2.679-2.586l1.566 1.243a16.084 16.084 0 0 1-3.058 2.953zm-19.777-.635a16.076 16.076 0 0 1-2.864-3.142l1.644-1.14a14.014 14.014 0 0 0 2.507 2.751zm24.044-4.072-1.717-1.025a13.916 13.916 0 0 0 1.461-3.421l1.928.532a15.876 15.876 0 0 1-1.672 3.914zm-28.002-.897a15.95 15.95 0 0 1-1.176-3.017l1.928-.532c.25.908.597 1.795 1.027 2.637zM34.707 12.707l-1.414-1.414L35.586 9l-2.293-2.293 1.414-1.414L38.414 9zM23 55h2v2h-2zM27 55h2v2h-2zM31 55h2v2h-2z" fill="#223b5a" opacity="1" data-original="#223b5a"></path></g><path fill="#de4542" d="M33 24a6 6 0 1 1-12 0 6 6 0 0 1 12 0zm-6-4a4 4 0 1 0 0 8 4 4 0 0 0 0-8z" opacity="1" data-original="#de4542"></path></g></svg>